<?xml version="1.0" encoding="UTF-8" standalone="no"?>
<!-- Created with Inkscape (http://www.inkscape.org/) -->

<svg
   width="256"
   height="256"
   viewBox="0 0 67.733332 67.733333"
   version="1.1"
   id="svg1"
   xml:space="preserve"
   inkscape:version="1.3.2 (091e20ef0f, 2023-11-25, custom)"
   sodipodi:docname="icon.svg"
   xmlns:inkscape="http://www.inkscape.org/namespaces/inkscape"
   xmlns:sodipodi="http://sodipodi.sourceforge.net/DTD/sodipodi-0.dtd"
   xmlns="http://www.w3.org/2000/svg"
   xmlns:svg="http://www.w3.org/2000/svg"><sodipodi:namedview
     id="namedview1"
     pagecolor="#ffffff"
     bordercolor="#000000"
     borderopacity="0.25"
     inkscape:showpageshadow="2"
     inkscape:pageopacity="0.0"
     inkscape:pagecheckerboard="0"
     inkscape:deskcolor="#d1d1d1"
     inkscape:document-units="mm"
     inkscape:zoom="0.32913747"
     inkscape:cx="-404.08647"
     inkscape:cy="48.611906"
     inkscape:window-width="2560"
     inkscape:window-height="1317"
     inkscape:window-x="0"
     inkscape:window-y="0"
     inkscape:window-maximized="1"
     inkscape:current-layer="g2" /><defs
     id="defs1" /><g
     style="fill:none;stroke:#000000;stroke-width:0.00024"
     id="g3"
     transform="matrix(3.2253602,0,0,3.2253602,-3.2249783,-6.4503334)"><g
       id="SVGRepo_bgCarrier"
       stroke-width="0" /><g
       id="SVGRepo_tracerCarrier"
       stroke-linecap="round"
       stroke-linejoin="round" /><g
       id="SVGRepo_iconCarrier"><path
         fill-rule="evenodd"
         clip-rule="evenodd"
         d="M 15.5023,14.3674 20.5319,9.35289 C 21.2563,8.63072 21.6185,8.26963 21.8092,7.81046 22,7.3513 22,6.84065 22,5.81937 V 5.33146 C 22,3.76099 22,2.97576 21.5106,2.48788 21.0213,2 20.2337,2 18.6585,2 H 18.1691 C 17.1447,2 16.6325,2 16.172,2.19019 15.7114,2.38039 15.3493,2.74147 14.6249,3.46364 L 9.59522,8.47817 C 8.74882,9.32202 8.224,9.84526 8.02078,10.3506 c -0.06421,0.1597 -0.09632,0.3176 -0.09632,0.4833 0,0.6899 0.55692,1.2452 1.67076,2.3557 l 0.1497,0.1492 1.75358,-1.7797 c 0.2501,-0.2538 0.6586,-0.2569 0.9124,-0.0068 0.2538,0.2501 0.2569,0.6586 0.0068,0.9124 l -1.759,1.7852 0.1179,0.1175 c 1.1139,1.1105 1.6708,1.6657 2.3628,1.6657 0.153,0 0.2993,-0.0271 0.4464,-0.0813 0.519,-0.1911 1.0487,-0.7193 1.9165,-1.5844 z m 2.3629,-5.88886 c -0.6525,0.6505 -1.7104,0.6505 -2.3628,0 -0.6525,-0.65051 -0.6525,-1.70519 0,-2.3557 0.6524,-0.65051 1.7103,-0.65051 2.3628,0 0.6525,0.65051 0.6525,1.70519 0,2.3557 z"
         fill="#5774d6"
         id="path1" /><path
         fill-rule="evenodd"
         clip-rule="evenodd"
         d="m 2.77409,12.4814 c 0.29624,0.2966 0.29595,0.7772 -6.6e-4,1.0734 l -0.15564,0.1555 c -0.13296,0.1328 -0.13296,0.3477 0,0.4805 0.13346,0.1333 0.35022,0.1333 0.48368,0 L 4.8136,12.4807 c 0.2966,-0.2962 0.77719,-0.2959 1.07344,7e-4 0.29624,0.2966 0.29594,0.7772 -6.6e-4,1.0734 l -1.71212,1.71 c -0.72616,0.7253 -1.9031,0.7253 -2.62926,0 -0.726666,-0.7257 -0.726667,-1.9028 0,-2.6286 l 0.15565,-0.1555 c 0.2966,-0.2962 0.77719,-0.2959 1.07344,7e-4 z m 4.5231,4.2146 c 0.29311,0.2997 0.28776,0.7802 -0.01194,1.0733 L 5.55508,19.4614 C 5.25538,19.7545 4.77481,19.7491 4.48171,19.4494 4.1886,19.1497 4.19395,18.6692 4.49365,18.3761 L 6.22382,16.684 c 0.2997,-0.2931 0.78027,-0.2877 1.07337,0.012 z m 4.18391,1.422 c 0.2963,0.2966 0.296,0.7772 -6e-4,1.0735 l -1.71216,1.71 c -0.13295,0.1328 -0.13295,0.3477 0,0.4805 0.13346,0.1333 0.35026,0.1333 0.48366,0 l 0.1557,-0.1555 c 0.2966,-0.2962 0.7772,-0.2959 1.0734,7e-4 0.2963,0.2966 0.296,0.7772 -6e-4,1.0734 l -0.1557,0.1555 c -0.7261,0.7252 -1.90309,0.7252 -2.62924,0 -0.72667,-0.7258 -0.72667,-1.9029 0,-2.6287 l 1.71214,-1.71 c 0.2966,-0.2963 0.7772,-0.296 1.0734,6e-4 z"
         fill="#5774d6"
         id="path2" /><g
         opacity="0.5"
         id="g4"><path
           d="M 10.8461,5.40925 8.65837,7.59037 C 8.25624,7.99126 7.88737,8.35901 7.59606,8.69145 7.40899,8.90494 7.22204,9.13861 7.06368,9.39679 L 7.04237,9.37554 C 7.00191,9.3352 6.98165,9.31501 6.96133,9.29529 6.58108,8.92635 6.1338,8.63301 5.64342,8.43097 5.61722,8.42018 5.59062,8.40964 5.53743,8.38856 L 5.2117,8.25949 C 4.77043,8.08464 4.65283,7.51659 4.9886,7.18184 5.95224,6.22112 7.10923,5.06765 7.6676,4.83597 8.16004,4.63166 8.692,4.56368 9.20505,4.6395 9.67514,4.70897 10.1198,4.95043 10.8461,5.40925 Z"
           fill="#5774d6"
           id="path3" /><path
           d="m 14.5816,16.8934 c 0.1763,0.1789 0.2933,0.3053 0.3992,0.4403 0.1396,0.1782 0.2645,0.3675 0.3734,0.5659 0.1225,0.2234 0.2176,0.462 0.4079,0.9393 0.1548,0.3885 0.6694,0.4912 0.9682,0.1933 l 0.0723,-0.0721 c 0.9636,-0.9608 2.1206,-2.1143 2.353,-2.671 0.2049,-0.4909 0.2731,-1.0213 0.197,-1.5328 -0.0696,-0.4686 -0.3118,-0.9119 -0.7719,-1.6358 l -2.195,2.1884 c -0.4112,0.41 -0.7883,0.786 -1.1293,1.0805 -0.2044,0.1765 -0.428,0.3529 -0.6748,0.504 z"
           fill="#5774d6"
           id="path4" /></g><g
         opacity="0.5"
         id="g6"><path
           d="m 7.68621,14.5633 c 0.29642,-0.2964 0.29642,-0.777 0,-1.0734 -0.29642,-0.2964 -0.77702,-0.2964 -1.07344,0 l -2.14241,2.1424 c -0.29642,0.2964 -0.29642,0.777 0,1.0734 0.29643,0.2964 0.77702,0.2964 1.07344,0 z"
           fill="#5774d6"
           id="path5" /><path
           d="m 10.4954,17.369 c 0.2964,-0.2964 0.2964,-0.777 0,-1.0734 -0.2965,-0.2964 -0.77705,-0.2964 -1.07347,0 l -2.12776,2.1277 c -0.29643,0.2965 -0.29643,0.777 0,1.0735 0.29642,0.2964 0.77701,0.2964 1.07344,0 z"
           fill="#5774d6"
           id="path6" /></g><rect
         style="fill:#5774d6;fill-opacity:1;stroke-width:7.2e-06"
         id="rect7"
         width="4.7951469"
         height="5.5685554"
         x="14.407611"
         y="-9.3275347"
         transform="rotate(45)" /></g></g><g
     style="fill:#575757;stroke:#575757"
     id="g2"
     transform="matrix(0.06532481,0.06532481,-0.06532481,0.06532481,53.289078,-3.4743083)"><g
       id="SVGRepo_bgCarrier-7"
       stroke-width="0" /><g
       id="SVGRepo_tracerCarrier-5"
       stroke-linecap="round"
       stroke-linejoin="round" /><g
       id="SVGRepo_iconCarrier-3"
       style="fill:#575757;fill-opacity:1;stroke:#575757;stroke-width:8.59193;stroke-dasharray:none;stroke-opacity:1"
       transform="translate(4.6801832,62.218631)"><path
         d="m 252,128 a 59.99981,59.99981 0 0 1 -102.42627,42.42627 q -0.25709,-0.25708 -0.49805,-0.5293 L 89.21533,102.30615 a 36,36 0 1 0 0,51.3877 L 92.30078,150.21 a 12.000012,12.000012 0 0 1 17.9668,15.91211 l -3.34326,3.7749 q -0.241,0.27173 -0.498,0.5293 a 60,60 0 1 1 0,-84.85254 q 0.25709,0.25709 0.498,0.5293 l 59.86035,67.59082 a 36,36 0 1 0 0,-51.3877 l -3.08545,3.48381 a 12.000012,12.000012 0 0 1 -17.9668,-15.91211 l 3.34326,-3.7749 q 0.241,-0.27174 0.49805,-0.5293 A 60,60 0 0 1 252,128 Z"
         id="path1-5"
         style="fill:#575757;fill-opacity:1;stroke:#575757;stroke-width:8.59193;stroke-dasharray:none;stroke-opacity:1" /></g></g><g
     inkscape:label="图层 1"
     inkscape:groupmode="layer"
     id="layer1" /></svg>
